<svg width="28" height="27" viewBox="0 0 28 27" fill="none" xmlns="http://www.w3.org/2000/svg">
<g filter="url(#filter0_d_2007_2283)">
<path fill-rule="evenodd" clip-rule="evenodd" d="M14 10C16.7625 10 19 7.7625 19 5C19 2.2375 16.7625 0 14 0C11.2375 0 9 2.2375 9 5C9 7.7625 11.2375 10 14 10ZM14 11.5C10.6625 11.5 4 13.175 4 16.5V17.75C4 18.4375 4.5625 19 5.25 19H22.75C23.4375 19 24 18.4375 24 17.75V16.5C24 13.175 17.3375 11.5 14 11.5Z" fill="#8B96A5"/>
</g>
<defs>
<filter id="filter0_d_2007_2283" x="0" y="0" width="28" height="27" filterUnits="userSpaceOnUse" color-interpolation-filters="sRGB">
<feFlood flood-opacity="0" result="BackgroundImageFix"/>
<feColorMatrix in="SourceAlpha" type="matrix" values="0 0 0 0 0 0 0 0 0 0 0 0 0 0 0 0 0 0 127 0" result="hardAlpha"/>
<feOffset dy="4"/>
<feGaussianBlur stdDeviation="2"/>
<feComposite in2="hardAlpha" operator="out"/>
<feColorMatrix type="matrix" values="0 0 0 0 0 0 0 0 0 0 0 0 0 0 0 0 0 0 0.25 0"/>
<feBlend mode="normal" in2="BackgroundImageFix" result="effect1_dropShadow_2007_2283"/>
<feBlend mode="normal" in="SourceGraphic" in2="effect1_dropShadow_2007_2283" result="shape"/>
</filter>
</defs>
</svg>
